<?xml version="1.0" encoding="UTF-8"?><svg id="_圖層_2" xmlns="http://www.w3.org/2000/svg" xmlns:xlink="http://www.w3.org/1999/xlink" viewBox="0 0 61.1 61.1"><defs><style>.cls-1{filter:url(#drop-shadow-1);}.cls-2{fill:#921e22;stroke:#921e22;}.cls-2,.cls-3,.cls-4{stroke-width:0px;}.cls-3{fill:#0f376d;stroke:#0f376d;}.cls-4{fill:#fff;stroke:#fff;}</style><filter id="drop-shadow-1" x="-6.46" y="-6.99" width="74" height="75" filterUnits="userSpaceOnUse"><feOffset dx="0" dy="0"/><feGaussianBlur result="blur" stdDeviation="2.01"/><feFlood flood-color="#040000" flood-opacity=".2"/><feComposite in2="blur" operator="in"/><feComposite in="SourceGraphic"/></filter></defs><g id="_文字"><g class="cls-1"><path class="cls-4" d="M26.66.04c.14-.05.27-.03.42-.04h6.66c.28,0,.57-.02.84.08.43.05.87-.06,1.28.09.19.03.39,0,.58.05.37.13.78-.02,1.15.14.49,0,.97.1,1.45.18.76.02,1.49.27,2.25.3,1.07.21,2.14.4,3.22.61,1.64.36,3.26.76,4.88,1.23,1.23.36,2.47.76,3.57,1.44,1.15.67,2.19,1.5,3.1,2.46,1.29,1.22,2.27,2.72,3.12,4.27.61,1.19,1.11,2.45,1.45,3.75.15.46.17.95.32,1.41.09.23.02.49.09.73.1.31.05.63.05.95,0,.72.03,1.45-.02,2.17-.11.26-.06.56-.08.83-.07.43-.18.85-.18,1.28-.28,1.59-.56,3.17-1.03,4.71-.56,2.22-1.35,4.35-2.19,6.47-.21.51-.43,1.02-.66,1.53-.16.48-.46.9-.62,1.39-.23.52-.51,1.01-.75,1.53-.06.22-.18.42-.31.6-1.42,2.84-3.05,5.57-4.85,8.18-1.34,1.92-2.75,3.79-4.31,5.53-.33.46-.79.79-1.12,1.26-.62.65-1.28,1.28-1.91,1.92-.35.28-.68.58-1,.91-.6.48-1.18,1.01-1.81,1.47-1.71,1.62-3.93,2.58-6.16,3.23-.4.07-.8.14-1.19.28-.25,0-.48.03-.72.09-1.03.02-2.06,0-3.09,0-.26.02-.47-.11-.73-.09-.26,0-.48-.16-.73-.18-.83-.12-1.61-.42-2.4-.7-1.58-.61-3.11-1.42-4.33-2.6-1.72-1.29-3.28-2.79-4.78-4.34-.32-.44-.75-.78-1.08-1.2-2.21-2.49-4.18-5.19-5.94-8.01-.89-1.39-1.71-2.81-2.48-4.27-.37-.57-.59-1.21-.97-1.77-.22-.57-.52-1.12-.79-1.67-.28-.7-.65-1.38-.93-2.08-1.16-2.74-2.16-5.54-2.87-8.43-.16-.43-.19-.89-.31-1.33-.09-.37-.18-.76-.22-1.15-.25-.84-.23-1.72-.43-2.58,0-.31,0-.61-.09-.91,0-.94-.02-1.87,0-2.81.07-.26.08-.54.09-.81.17-.51.21-1.05.36-1.56.61-2.34,1.71-4.55,3.19-6.47.64-.87,1.44-1.6,2.2-2.36.82-.68,1.68-1.34,2.63-1.84,1.7-.92,3.6-1.32,5.43-1.86.97-.21,1.93-.47,2.9-.66.63-.08,1.23-.27,1.86-.33.39-.12.81-.16,1.21-.25.49.03.95-.2,1.44-.2.49-.11,1.01-.1,1.5-.23.25-.07.5,0,.75-.07.35-.13.73.02,1.08-.11.21-.06.45,0,.66-.07.44-.15.91.03,1.35-.11M28.21,1.47c-.65.05-1.29,0-1.94.06-.83.08-1.68.08-2.51.2-3.1.26-6.18.78-9.2,1.52-1.64.46-3.29.93-4.86,1.61-1.17.55-2.23,1.3-3.17,2.19-.33.26-.61.56-.88.88-2.69,2.92-4.3,6.86-4.21,10.85.31,5.22,1.86,10.3,3.91,15.09,1.12,2.59,2.41,5.11,3.83,7.55,2.63,4.4,5.66,8.6,9.35,12.18,1.03,1.05,2.15,2,3.31,2.89.99.85,2.09,1.6,3.3,2.09,2.29,1.01,4.86,1.27,7.33.97,2.16-.28,4.26-1.09,6-2.4.58-.47,1.17-.95,1.76-1.42,1-.81,1.95-1.7,2.85-2.63,1.1-1.06,2.09-2.23,3.08-3.39,4.47-5.49,8.05-11.7,10.6-18.3,1.36-3.59,2.4-7.33,2.79-11.16.44-3.29-.36-6.7-2.04-9.55-1.14-1.92-2.64-3.64-4.49-4.91-.78-.54-1.63-.99-2.53-1.3-3.15-1.19-6.47-1.9-9.8-2.39-2.53-.34-5.09-.59-7.64-.62-.67-.1-1.36-.04-2.03-.05-.93.02-1.87-.05-2.8.04Z"/><path class="cls-3" d="M28.21,1.47c.93-.08,1.87-.02,2.8-.04.67.02,1.36-.05,2.03.05,2.55.03,5.11.28,7.64.62,3.33.49,6.65,1.19,9.8,2.39.9.31,1.75.77,2.53,1.3,1.85,1.27,3.35,2.98,4.49,4.91,1.69,2.84,2.48,6.25,2.04,9.55-.39,3.83-1.43,7.57-2.79,11.16-2.54,6.6-6.13,12.81-10.6,18.3-.99,1.16-1.98,2.33-3.08,3.39-.9.93-1.85,1.81-2.85,2.63-.59.47-1.18.95-1.76,1.42-1.74,1.3-3.84,2.12-6,2.4-2.47.3-5.04.05-7.33-.97-1.21-.49-2.31-1.24-3.3-2.09-1.16-.89-2.28-1.84-3.31-2.89-3.68-3.58-6.72-7.78-9.35-12.18-1.42-2.44-2.71-4.96-3.83-7.55-2.05-4.79-3.6-9.87-3.91-15.09-.09-3.99,1.52-7.93,4.21-10.85.26-.32.55-.62.88-.88.94-.88,2.01-1.64,3.17-2.19,1.57-.68,3.22-1.16,4.86-1.61,3.02-.75,6.1-1.27,9.2-1.52.83-.12,1.68-.12,2.51-.2.65-.05,1.29,0,1.94-.06M27.58,3.24c-.47.04-.94.09-1.4.07-.65-.03-1.28.16-1.91.14-4.57.43-9.15,1.25-13.45,2.9-1.68.74-3.13,1.95-4.29,3.36-2.05,2.52-3.34,5.72-3.3,8.99.05.98.19,1.96.32,2.95.67,4.25,2.08,8.36,3.83,12.29,2.65,5.87,6.1,11.42,10.39,16.24,1.65,1.79,3.38,3.51,5.32,4.98,2.11,1.86,4.94,2.82,7.74,2.76,2.62-.07,5.22-1.02,7.19-2.76,1.93-1.45,3.64-3.17,5.28-4.93,3.77-4.23,6.88-9.04,9.41-14.11,2.42-4.97,4.35-10.23,5.02-15.74.09-.95.24-1.91.1-2.87-.16-2.18-.96-4.28-2.08-6.15-1.29-2.09-3.1-3.91-5.33-4.97-4.13-1.6-8.52-2.43-12.9-2.87-.56-.1-1.12-.05-1.68-.15-.46-.08-.91-.06-1.37-.06-2.29-.19-4.6-.17-6.89-.07Z"/><path class="cls-4" d="M27.58,3.24c2.3-.1,4.6-.12,6.89.07.46,0,.91-.02,1.37.06.56.09,1.12.05,1.68.15,4.39.45,8.77,1.27,12.9,2.87,2.23,1.06,4.04,2.88,5.33,4.97,1.12,1.87,1.91,3.97,2.08,6.15.14.96,0,1.92-.1,2.87-.67,5.51-2.61,10.77-5.02,15.74-2.53,5.07-5.63,9.87-9.41,14.11-1.64,1.76-3.35,3.48-5.28,4.93-1.97,1.74-4.58,2.69-7.19,2.76-2.8.05-5.63-.9-7.74-2.76-1.94-1.47-3.67-3.19-5.32-4.98-4.29-4.82-7.73-10.37-10.39-16.24-1.75-3.93-3.15-8.04-3.83-12.29-.13-.98-.26-1.96-.32-2.95-.04-3.27,1.25-6.47,3.3-8.99,1.16-1.41,2.61-2.63,4.29-3.36,4.3-1.65,8.88-2.47,13.45-2.9.64.02,1.27-.16,1.91-.14.47.02.94-.04,1.4-.07M28.67,4.71c-.98.17-2.01-.06-2.99.17-.54.07-1.1-.03-1.64.11-.4.1-.83,0-1.22.13-.36.11-.73.03-1.08.12-.38.11-.78.05-1.16.19-.75.05-1.48.26-2.22.36-1.81.36-3.61.8-5.37,1.38-1.12.38-2.27.77-3.21,1.52-.44.26-.75.66-1.16.95-.35.26-.55.66-.87.95-1.06,1.28-1.86,2.75-2.42,4.31-.16.66-.41,1.29-.44,1.97-.21.75-.11,1.53-.13,2.3-.04.36.16.71.14,1.09-.02.46.15.89.16,1.35.16.56.17,1.15.36,1.71.16.98.44,1.93.7,2.88,1.72,5.9,4.45,11.47,7.83,16.59,1.33,2.02,2.8,3.93,4.36,5.76.5.51.9,1.09,1.43,1.58.89.87,1.72,1.81,2.7,2.59.64.61,1.37,1.12,2.04,1.69.88.69,1.88,1.22,2.94,1.55.49.19,1.01.22,1.51.37.79.02,1.59.25,2.38.07.36-.1.76,0,1.1-.15,1.7-.27,3.3-1.05,4.59-2.18.6-.46,1.19-.93,1.74-1.45.69-.52,1.26-1.17,1.88-1.77.51-.53,1.06-1.01,1.51-1.58,3.29-3.67,6.05-7.81,8.36-12.15.64-1.13,1.17-2.32,1.71-3.48,1.81-4.05,3.27-8.3,3.9-12.69.08-.31.06-.63.08-.94.05-.25.14-.49.13-.74,0-.64.03-1.27-.02-1.91-.15-.55-.15-1.12-.33-1.66-.58-2.26-1.82-4.34-3.46-6.02-.43-.29-.76-.71-1.2-.98-.8-.65-1.77-1.03-2.74-1.36-2.48-.87-5.05-1.44-7.63-1.86-.44,0-.84-.18-1.28-.16-.4-.12-.83-.11-1.24-.15-.47-.17-.97-.05-1.44-.18-.59-.14-1.21.02-1.8-.14-.99-.16-2.02.05-3-.16-.91-.02-1.82,0-2.74,0-.26,0-.53-.02-.78.05Z"/><path class="cls-2" d="M28.67,4.71c.26-.06.52-.04.78-.05.91,0,1.82,0,2.74,0,.98.22,2.01,0,3,.16.58.16,1.2,0,1.8.14.47.13.98,0,1.44.18.41.04.84.03,1.24.15.44-.02.84.16,1.28.16,2.58.42,5.15.99,7.63,1.86.98.33,1.94.71,2.74,1.36.45.27.78.69,1.2.98,1.63,1.68,2.87,3.76,3.46,6.02.18.54.18,1.11.33,1.66.05.64.02,1.27.02,1.91,0,.25-.07.49-.13.74-.02.31,0,.63-.08.94-.63,4.39-2.09,8.64-3.9,12.69-.55,1.17-1.08,2.35-1.71,3.48-2.31,4.35-5.07,8.48-8.36,12.15-.46.57-1,1.05-1.51,1.58-.62.6-1.19,1.25-1.88,1.77-.55.52-1.14.99-1.74,1.45-1.29,1.13-2.89,1.91-4.59,2.18-.35.16-.74.05-1.1.15-.79.17-1.59-.05-2.38-.07-.5-.16-1.02-.18-1.51-.37-1.06-.33-2.05-.86-2.94-1.55-.67-.57-1.4-1.08-2.04-1.69-.98-.78-1.81-1.72-2.7-2.59-.53-.48-.93-1.07-1.43-1.58-1.56-1.83-3.03-3.75-4.36-5.76-3.38-5.12-6.11-10.69-7.83-16.59-.26-.95-.54-1.91-.7-2.88-.18-.56-.19-1.15-.36-1.71,0-.46-.17-.89-.16-1.35.02-.37-.17-.72-.14-1.09.02-.77-.08-1.55.13-2.3.03-.67.27-1.31.44-1.97.56-1.56,1.36-3.04,2.42-4.31.32-.29.52-.68.87-.95.41-.29.72-.69,1.16-.95.94-.76,2.09-1.14,3.21-1.52,1.76-.57,3.56-1.02,5.37-1.38.75-.1,1.48-.31,2.22-.36.37-.15.78-.08,1.16-.19.35-.09.72,0,1.08-.12.39-.14.82-.03,1.22-.13.54-.14,1.1-.04,1.64-.11.98-.24,2.01,0,2.99-.17M24.06,14.12c-1.91.26-3.67,1.21-5.02,2.54-.98,1-1.82,2.12-2.47,3.36-1.71,3.12-2.36,6.73-2.24,10.26.15,2.41.51,4.91,1.86,6.98.96,1.51,2.64,2.46,4.39,2.74,1.42.19,2.93.05,4.21-.61,1.43-.7,2.55-1.98,3.14-3.46.69-1.66.78-3.52.52-5.28-.32-1.79-1.1-3.59-2.57-4.71-1.13-.79-2.51-1.2-3.88-1.31-1.25-.05-2.46.3-3.62.7.61-1.92,1.6-3.84,3.24-5.09,1.19-.91,2.73-1.29,4.21-1.22,0-1.67.03-3.36-.02-5.02-.57.05-1.17.02-1.74.13M42.49,14.05c-1.4.09-2.75.53-3.94,1.27-1.5.89-2.65,2.24-3.6,3.67-1.71,2.69-2.63,5.84-2.82,9-.14,2.39.05,4.83.78,7.12.48,1.4,1.23,2.78,2.45,3.67,1.29.96,2.95,1.4,4.57,1.29,1.63-.06,3.24-.77,4.36-1.96,1.19-1.21,1.81-2.88,2-4.55.16-1.73-.03-3.53-.76-5.13-.54-1.21-1.41-2.33-2.63-2.93-.86-.43-1.79-.72-2.74-.82-1.38-.19-2.74.21-4.03.66.61-1.92,1.6-3.84,3.24-5.09,1.19-.91,2.73-1.29,4.21-1.22,0-1.67.03-3.36-.02-5.02-.36.02-.72.05-1.09.05Z"/><path class="cls-4" d="M24.06,14.12c.57-.11,1.17-.07,1.74-.13.05,1.67.03,3.36.02,5.02-1.49-.06-3.02.31-4.21,1.22-1.64,1.25-2.63,3.16-3.24,5.09,1.16-.4,2.37-.76,3.62-.7,1.37.11,2.74.52,3.88,1.31,1.47,1.12,2.25,2.93,2.57,4.71.26,1.76.17,3.62-.52,5.28-.58,1.48-1.71,2.75-3.14,3.46-1.29.66-2.79.8-4.21.61-1.74-.27-3.43-1.22-4.39-2.74-1.35-2.06-1.71-4.57-1.86-6.98-.12-3.53.54-7.14,2.24-10.26.65-1.24,1.5-2.36,2.47-3.36,1.36-1.33,3.12-2.29,5.02-2.54M20.92,29.68c-.68.06-1.38.26-1.92.71-1.16.91-1.17,2.88-.04,3.82.8.68,1.9.88,2.94.88.84-.03,1.72-.22,2.38-.78.7-.57.96-1.55.82-2.43-.09-.84-.68-1.58-1.45-1.91-.85-.39-1.81-.38-2.73-.29Z"/><path class="cls-4" d="M42.49,14.05c.36,0,.73-.04,1.09-.05.05,1.67.03,3.36.02,5.02-1.49-.06-3.02.31-4.21,1.22-1.64,1.25-2.63,3.16-3.24,5.09,1.29-.45,2.65-.85,4.03-.66.95.1,1.88.39,2.74.82,1.21.59,2.09,1.71,2.63,2.93.73,1.6.91,3.4.76,5.13-.19,1.67-.81,3.34-2,4.55-1.12,1.19-2.73,1.9-4.36,1.96-1.61.12-3.27-.33-4.57-1.29-1.22-.88-1.97-2.27-2.45-3.67-.74-2.29-.92-4.73-.78-7.12.19-3.16,1.11-6.31,2.82-9,.95-1.43,2.11-2.78,3.6-3.67,1.19-.74,2.54-1.18,3.94-1.27M38.7,29.68c-.67.06-1.34.25-1.87.67-1.19.88-1.25,2.84-.14,3.81.7.63,1.67.88,2.6.91.97.04,2.01-.13,2.76-.77.7-.57.96-1.56.82-2.43-.09-.81-.65-1.53-1.39-1.88-.86-.42-1.85-.41-2.79-.32Z"/><path class="cls-2" d="M20.92,29.68c.91-.09,1.88-.1,2.73.29.77.33,1.36,1.07,1.45,1.91.14.88-.12,1.85-.82,2.43-.66.57-1.54.76-2.38.78-1.04,0-2.13-.19-2.94-.88-1.13-.94-1.12-2.91.04-3.82.55-.45,1.24-.65,1.92-.71Z"/><path class="cls-2" d="M38.7,29.68c.94-.09,1.93-.1,2.79.32.74.35,1.29,1.07,1.39,1.88.14.88-.12,1.86-.82,2.43-.76.64-1.8.8-2.76.77-.93-.04-1.9-.28-2.6-.91-1.11-.97-1.05-2.94.14-3.81.53-.43,1.2-.61,1.87-.67Z"/></g></g></svg>