<?xml version="1.0" encoding="UTF-8"?><svg id="_圖層_2" xmlns="http://www.w3.org/2000/svg" viewBox="0 0 565.17 198.02"><defs><style>.cls-1{fill:none;}.cls-2{fill:#0e6140;}.cls-3{fill:#91b84a;}</style></defs><g id="_文字"><path class="cls-2" d="M119.13,86.49h-23.38v24.93c0,18.91-1.72,40.06-18.74,56.4l1.38,1.72c22.7-9.63,31.81-23.9,35.42-37.83h57.6v13.58c0,2.24-.86,3.44-3.61,3.44-4.47,0-23.38-1.38-23.38-1.38v2.24c9.46,1.55,13.24,3.78,16.16,6.19,2.75,2.75,3.78,7.05,4.3,12.72,23.38-1.89,26.82-9.11,26.82-21.49v-60.53h-72.56ZM171.4,126.89h-56.57c1.03-5.33,1.2-10.66,1.2-15.48h55.37v15.48ZM171.4,106.6h-55.37v-15.13h55.37v15.13Z"/><path class="cls-2" d="M192.72,69.81h-40.41v-16.33h45.93v-4.81h-45.93v-15.3h55.47v-4.81H77v4.81h55.02v15.3h-46.17v4.81h46.17v16.33h-65.38v4.81h151.01c.4,0,.78-.03,1.14-.07v-4.74h-26.08Z"/><polygon class="cls-3" points="152.32 7.93 152.32 1.91 132.03 0 132.03 23.79 152.32 23.79 152.32 21.57 152.32 7.93"/><path class="cls-2" d="M354.85,51.4c4.21-1.07,8.29-2.54,12.22-4.38.55-.26,1.13-.53,1.72-.81l-18.03-15.45c-23.74,12.21-71.12,26.99-110.23,34.19,13.16,2.11,36.86-.14,49.4-1.6.83-.1,1.67-.19,2.5-.3,1.95-.25,3.89-.5,5.82-.76l20.51-3.29c13.22-2.29,25.48-4.9,36.09-7.59Z"/><rect class="cls-1" x="473.71" y="117.05" width="56.74" height="35.77"/><polygon class="cls-3" points="536.68 55.26 536.68 62.59 557.31 70.17 557.31 64.44 557.31 55.26 557.31 21.15 557.31 9.02 536.68 9.02 536.68 16.1 536.68 55.26"/><path class="cls-2" d="M539.22,83.69h-26.14v-22.12l-19.95-1.61v23.73h-44.54c.34-7.39.52-14.44.52-21.15v-5.33h83.4v-4.99h-83.4v-26.65h83.4v-4.81h-104.03v41.78c0,34.91-1.55,75.14-19.26,107.3,0,0,26.18-18.79,34.71-53.79l-.24,1.2c2.46-9.62,3.83-19.34,4.57-28.74h44.88v23.56h-38.69v50.45l19.26-4.88h56.74l19.78,5.82.17-39.25v-12.14h-37.31v-23.56h51.76c.11,0,.22-.01.33-.01v-4.8h-25.95ZM530.45,117.05v35.77h-56.74v-35.77h56.74Z"/><polygon class="cls-3" points="318.29 63.56 297.65 65.77 297.65 95.95 318.29 95.95 318.29 63.56"/><path class="cls-2" d="M321.73,103.79h67.14v-4.99h-91.21v.17h-63.17v4.81h51.99c-11.18,28.37-33.01,59.5-59.67,79.44l1.55,1.72c29.4-13.93,52.96-33.53,69.3-56.92v69.98l20.64-5.67v-88.56h.17c10.49,36.63,28.37,62.07,54.85,77.72l16.69-19.01,1.88-2.14c-27.34-8.94-55.54-29.4-70.15-56.57Z"/><path class="cls-2" d="M11.05,36.74l2.69.69c-.83,1.95-1.88,3.79-3.15,5.54-1.27,1.75-2.57,3.21-3.9,4.4-.18-.15-.4-.34-.69-.57-.28-.23-.57-.45-.87-.66-.29-.21-.55-.38-.77-.51,1.38-1.07,2.66-2.39,3.84-3.97,1.18-1.57,2.13-3.21,2.85-4.92ZM5.14,30.02h15.68v2.59H5.14v-2.59ZM5.18,35.46h15.52v2.66H5.18v-2.66ZM5.77,22.44h14.63v2.56H5.77v-2.56ZM7.73,25.65l2.62-.62c.31.66.58,1.38.82,2.18.24.8.39,1.48.46,2.05l-2.72.75c-.09-.59-.24-1.3-.46-2.12-.22-.82-.46-1.57-.72-2.25ZM10.62,19.52l3.12-.75c.35.7.7,1.47,1.05,2.3.35.83.6,1.54.75,2.13l-3.25.89c-.13-.59-.36-1.32-.69-2.18-.33-.86-.66-1.66-.98-2.38ZM11.8,31.26h2.95v18.11h-2.95v-18.11ZM12.66,38.41l1.94-1.48c.74.63,1.48,1.35,2.2,2.15.72.8,1.39,1.57,2,2.33.61.75,1.1,1.45,1.48,2.08l-2.07,1.71c-.37-.61-.85-1.32-1.44-2.12-.59-.8-1.25-1.61-1.97-2.43s-1.43-1.57-2.13-2.25ZM15.87,25.03l2.85.59c-.35.92-.71,1.85-1.07,2.79-.36.94-.71,1.74-1.03,2.39l-2.53-.56c.2-.48.41-1.03.64-1.64.23-.61.45-1.24.66-1.87.21-.63.37-1.2.48-1.71ZM22,22.24h2.89v11.68c0,1.2-.04,2.49-.11,3.87s-.24,2.76-.48,4.15c-.24,1.39-.59,2.73-1.03,4.02-.45,1.29-1.06,2.46-1.82,3.51-.15-.15-.38-.33-.69-.54-.31-.21-.62-.41-.95-.61-.33-.2-.61-.35-.85-.46.94-1.29,1.62-2.74,2.05-4.35.43-1.61.7-3.24.82-4.9.12-1.66.18-3.23.18-4.69v-11.68ZM32.7,19.52l2.43,2.3c-1.14.42-2.4.8-3.77,1.15-1.38.35-2.79.66-4.23.92-1.44.26-2.84.5-4.2.72-.07-.33-.19-.73-.38-1.2-.19-.47-.37-.86-.54-1.16,1.29-.22,2.59-.47,3.9-.75,1.31-.28,2.56-.6,3.74-.93,1.18-.34,2.2-.68,3.05-1.03ZM23.19,30.05h12.17v2.89h-12.17v-2.89ZM28.93,31.29h3.02v18.07h-3.02v-18.07Z"/><path class="cls-2" d="M17.54,76.3l2.43,1.05c-.74.92-1.62,1.8-2.64,2.64-1.02.84-2.12,1.62-3.3,2.35-1.18.72-2.4,1.36-3.64,1.92-1.25.56-2.5,1.03-3.77,1.43-.13-.26-.32-.55-.56-.87-.24-.32-.49-.63-.74-.93-.25-.31-.49-.57-.71-.79,1.22-.28,2.46-.66,3.71-1.12,1.25-.46,2.44-.98,3.58-1.57,1.14-.59,2.19-1.23,3.17-1.92.97-.69,1.8-1.42,2.48-2.18ZM9.9,54.91l2.76.85c-.7,1.4-1.57,2.76-2.62,4.07-1.05,1.31-2.12,2.42-3.21,3.31-.13-.17-.33-.4-.59-.67-.26-.27-.53-.54-.8-.8-.27-.26-.51-.47-.71-.62,1.03-.77,2.01-1.69,2.94-2.77.93-1.08,1.68-2.2,2.25-3.36ZM5.27,71.31c1.05-.13,2.25-.28,3.61-.44s2.79-.35,4.31-.56c1.52-.21,3.04-.43,4.58-.67l.07,2.56c-2.14.31-4.29.62-6.45.94-2.15.32-4.06.6-5.72.84l-.39-2.66ZM5.57,75.48h29.23v2.49H5.57v-2.49ZM6.16,63.93h11.38v2.53H6.16v-2.53ZM9.54,57.04h10.33v2.39h-10.33v-2.39ZM10.56,64.62h2.89v6.99h-2.89v-6.99ZM11.41,60.46l1.9-1.61c.61.5,1.25,1.07,1.92,1.71.67.63,1.19,1.19,1.56,1.67l-1.97,1.77c-.35-.48-.85-1.06-1.51-1.74-.66-.68-1.29-1.28-1.9-1.8ZM18.1,68.98l1.05-1.94c1.07.31,2.24.68,3.51,1.12,1.27.44,2.49.87,3.67,1.3,1.18.43,2.17.8,2.95,1.13l-1.05,2.26c-.77-.37-1.73-.79-2.9-1.25-1.17-.46-2.39-.92-3.66-1.39-1.27-.47-2.46-.88-3.58-1.23ZM18.63,73.48h2.98v12.14h-2.98v-12.14ZM23.25,54.95l2.85.72c-.55,1.42-1.28,2.78-2.2,4.07-.92,1.29-1.87,2.37-2.85,3.25-.15-.17-.37-.38-.66-.61-.28-.23-.57-.46-.87-.69-.29-.23-.56-.42-.8-.57.98-.74,1.88-1.66,2.67-2.76.8-1.09,1.42-2.23,1.85-3.41ZM18.76,63.74h11.15v2.23h-11.15v-2.23ZM22,76.14c.74.72,1.63,1.42,2.66,2.1,1.03.68,2.15,1.31,3.36,1.89,1.21.58,2.47,1.09,3.77,1.54,1.3.45,2.59.83,3.85,1.13-.33.31-.68.71-1.07,1.21-.38.5-.69.95-.93,1.34-1.25-.39-2.52-.87-3.81-1.43-1.29-.56-2.55-1.19-3.77-1.9-1.23-.71-2.37-1.48-3.43-2.31-1.06-.83-2-1.69-2.8-2.59l2.16-.98ZM22.2,64.69h2.76v8.96h-2.76v-8.96ZM22.76,57.08h12.33v2.39h-12.33v-2.39ZM25.78,60.36l2.07-1.54c.61.52,1.26,1.1,1.94,1.74.68.63,1.2,1.18,1.57,1.64l-2.2,1.74c-.33-.48-.82-1.07-1.48-1.75-.66-.69-1.29-1.3-1.9-1.82ZM28.66,63.74h2.89c-.02.94,0,1.84.07,2.71.07.86.16,1.64.28,2.31.12.68.27,1.22.44,1.62.17.41.37.61.59.61.17,0,.32-.23.43-.71.11-.47.17-1.21.2-2.21.26.24.59.48.98.72.39.24.71.42.95.52-.18,1.77-.48,3.02-.92,3.74-.44.72-.95,1.08-1.54,1.08-.79,0-1.46-.31-2.02-.92-.56-.61-1-1.42-1.33-2.43-.33-1.01-.57-2.12-.74-3.35-.16-1.22-.26-2.46-.28-3.71Z"/><path class="cls-2" d="M20.59,110.45l2.17,1.61c-.92.81-1.99,1.62-3.21,2.43-1.23.81-2.54,1.57-3.94,2.3-1.4.72-2.83,1.38-4.28,1.98-1.45.6-2.86,1.1-4.21,1.49-.18-.37-.41-.81-.71-1.31-.29-.5-.6-.93-.9-1.28,1.33-.31,2.71-.72,4.13-1.23,1.42-.51,2.82-1.09,4.2-1.74,1.38-.64,2.65-1.33,3.82-2.07,1.17-.73,2.15-1.46,2.94-2.18ZM18.72,106.58l2,1.48c-.81.59-1.74,1.19-2.79,1.79-1.05.6-2.17,1.19-3.36,1.75-1.19.57-2.39,1.09-3.59,1.56-1.2.47-2.34.88-3.41,1.23-.18-.35-.4-.76-.69-1.23-.28-.47-.57-.87-.85-1.2,1.05-.24,2.17-.56,3.35-.95,1.18-.39,2.36-.84,3.53-1.33,1.17-.49,2.26-1,3.26-1.53,1.01-.52,1.86-1.05,2.56-1.57ZM19.84,100.34l2.59,1.08c-1.14,1.14-2.52,2.18-4.13,3.13-1.62.95-3.33,1.79-5.13,2.51s-3.58,1.33-5.33,1.84c-.11-.2-.26-.45-.46-.77-.2-.32-.4-.63-.61-.93-.21-.31-.4-.56-.57-.75,1.71-.39,3.42-.89,5.15-1.48,1.73-.59,3.33-1.28,4.82-2.07,1.49-.79,2.71-1.64,3.67-2.56ZM6.26,94.11h27.92v7.09h-3.15v-4.26H9.31v4.26h-3.05v-7.09ZM10.72,99.49h18.76v2.69H10.72v-2.69ZM16.4,104.48l2.36-1.31c1.27,1.09,2.3,2.31,3.08,3.64.79,1.33,1.35,2.7,1.69,4.1.34,1.4.49,2.73.46,4-.03,1.27-.22,2.38-.57,3.35-.35.96-.82,1.67-1.41,2.13-.55.52-1.09.87-1.62,1.05-.54.17-1.21.27-2.02.3-.35,0-.77,0-1.25-.02-.48-.01-.97-.03-1.48-.05-.02-.42-.1-.9-.25-1.46-.14-.56-.34-1.04-.61-1.46.59.04,1.15.08,1.67.11.52.03.96.05,1.31.05.44,0,.81-.04,1.12-.13.31-.09.59-.28.85-.59.35-.31.63-.83.85-1.56.22-.73.32-1.59.31-2.57-.01-.98-.16-2.03-.46-3.15-.29-1.12-.77-2.23-1.41-3.35-.65-1.12-1.53-2.14-2.64-3.08ZM17.41,91.98l3.25-.95c.35.59.71,1.25,1.07,1.98.36.73.61,1.36.74,1.89l-3.41,1.05c-.13-.55-.36-1.19-.67-1.94-.32-.74-.64-1.42-.97-2.03ZM29.45,103.1l2.53,2.03c-.94.77-1.96,1.54-3.05,2.31-1.09.78-2.19,1.51-3.28,2.21-1.09.7-2.12,1.31-3.08,1.84l-2-1.77c.94-.55,1.95-1.2,3.03-1.95,1.08-.75,2.14-1.54,3.18-2.35,1.04-.81,1.93-1.59,2.67-2.33ZM27.22,108.38c.46,1.4,1.09,2.72,1.89,3.95.8,1.24,1.74,2.33,2.84,3.28,1.09.95,2.31,1.69,3.64,2.21-.22.2-.45.44-.71.74-.25.3-.5.6-.74.92-.24.32-.44.61-.59.87-1.47-.68-2.78-1.57-3.94-2.69s-2.17-2.4-3.03-3.85c-.86-1.45-1.56-3.05-2.08-4.77l2.72-.66Z"/><path class="cls-3" d="M.36,155.77v-6.13h1.81c.42,0,.78.05,1.1.15s.56.26.74.48.27.51.27.87c0,.2-.04.39-.1.57-.07.18-.17.34-.31.47s-.3.23-.48.29v.04c.36.07.66.22.89.47.23.25.35.58.35.99s-.1.73-.3,1-.47.46-.82.6c-.35.13-.75.2-1.21.2H.36ZM1.13,152.24h.91c.53,0,.91-.09,1.14-.27.23-.18.34-.42.34-.74,0-.36-.12-.62-.36-.76-.24-.15-.6-.22-1.08-.22h-.94v1.99ZM1.13,155.15h1.07c.52,0,.93-.1,1.23-.29.29-.2.44-.5.44-.91,0-.38-.15-.66-.43-.84-.29-.18-.7-.26-1.24-.26h-1.07v2.31Z"/><path class="cls-3" d="M7.52,155.77v-6.13h3.53v.65h-2.76v1.92h2.32v.66h-2.32v2.23h2.85v.66h-3.62Z"/><path class="cls-3" d="M13.31,155.77l2.07-6.13h.86l2.08,6.13h-.82l-1.07-3.43c-.11-.35-.22-.7-.32-1.03-.1-.34-.2-.68-.3-1.04h-.03c-.09.36-.19.7-.3,1.04-.1.34-.21.68-.31,1.03l-1.09,3.43h-.78ZM14.38,153.9v-.61h2.82v.61h-2.82Z"/><path class="cls-3" d="M22.88,155.88c-.31,0-.6-.04-.87-.13s-.5-.24-.7-.44c-.2-.21-.35-.48-.46-.82-.11-.34-.17-.75-.17-1.24v-3.6h.77v3.62c0,.49.06.88.19,1.16.13.28.3.48.51.6.21.12.46.18.72.18s.52-.06.74-.18c.22-.12.39-.32.52-.6.13-.28.2-.67.2-1.16v-3.62h.74v3.6c0,.48-.05.9-.16,1.24-.11.34-.26.61-.46.82-.2.21-.43.35-.7.44-.27.09-.56.13-.87.13Z"/><path class="cls-3" d="M29.67,155.77v-5.47h-1.86v-.65h4.49v.65h-1.86v5.47h-.78Z"/><path class="cls-3" d="M35.08,155.77v-6.13h.77v6.13h-.77Z"/><path class="cls-3" d="M39.2,155.77v-6.13h3.53v.65h-2.76v2.07h2.34v.65h-2.34v2.75h-.77Z"/><path class="cls-3" d="M47.66,155.88c-.31,0-.6-.04-.87-.13s-.5-.24-.7-.44c-.2-.21-.35-.48-.46-.82-.11-.34-.17-.75-.17-1.24v-3.6h.77v3.62c0,.49.06.88.19,1.16.13.28.3.48.51.6.21.12.46.18.72.18s.52-.06.74-.18c.22-.12.39-.32.52-.6.13-.28.2-.67.2-1.16v-3.62h.74v3.6c0,.48-.05.9-.16,1.24-.11.34-.26.61-.46.82-.2.21-.43.35-.7.44-.27.09-.56.13-.87.13Z"/><path class="cls-3" d="M53.18,155.77v-6.13h.77v5.47h2.68v.66h-3.45Z"/><path class="cls-3" d="M2.77,165.91c-.54,0-1.02-.13-1.43-.38s-.74-.61-.98-1.09c-.24-.47-.35-1.04-.35-1.71,0-.5.07-.94.21-1.33.14-.39.34-.73.59-1,.25-.27.55-.48.89-.63s.71-.22,1.12-.22c.43,0,.79.08,1.07.24.28.16.52.33.69.51l-.42.5c-.16-.16-.34-.3-.55-.41-.21-.11-.47-.17-.77-.17-.41,0-.77.1-1.08.3-.31.2-.54.49-.71.86-.17.37-.25.81-.25,1.32s.08.97.24,1.34c.16.38.39.67.7.87.31.2.68.3,1.11.3.22,0,.42-.03.62-.1.2-.06.36-.15.48-.26v-1.6h-1.3v-.64h2.01v2.57c-.2.21-.46.38-.79.51-.33.13-.69.2-1.1.2Z"/><path class="cls-3" d="M7.37,165.8v-6.13h1.91c.42,0,.79.05,1.11.16.32.11.57.29.76.54.18.25.28.59.28,1.01s-.09.75-.28,1.02c-.18.27-.44.47-.76.6-.32.13-.69.2-1.11.2h-1.15v2.6h-.77ZM8.14,162.58h1.03c.48,0,.85-.1,1.1-.3s.38-.5.38-.9-.13-.68-.38-.84-.62-.24-1.1-.24h-1.03v2.28ZM10.73,165.8l-1.6-2.8.61-.41,1.86,3.21h-.87Z"/><path class="cls-3" d="M13.93,165.8v-6.13h3.53v.65h-2.76v1.92h2.32v.66h-2.32v2.23h2.85v.66h-3.62Z"/><path class="cls-3" d="M20.11,165.8v-6.13h3.53v.65h-2.76v1.92h2.32v.66h-2.32v2.23h2.85v.66h-3.62Z"/><path class="cls-3" d="M26.29,165.8v-6.13h.79l2.24,3.86.66,1.26h.04c-.03-.31-.05-.63-.08-.96-.02-.33-.03-.66-.03-.98v-3.18h.74v6.13h-.79l-2.23-3.87-.66-1.25h-.03c.02.31.04.62.06.94.02.32.03.64.03.97v3.22h-.73Z"/><path class="cls-3" d="M36.71,165.8v-6.13h.77v5.47h2.68v.66h-3.45Z"/><path class="cls-3" d="M42.5,165.8v-6.13h.77v6.13h-.77Z"/><path class="cls-3" d="M46.2,165.8v-6.13h3.53v.65h-2.76v2.07h2.34v.65h-2.34v2.75h-.77Z"/><path class="cls-3" d="M52.07,165.8v-6.13h3.53v.65h-2.76v1.92h2.32v.66h-2.32v2.23h2.85v.66h-3.62Z"/><rect class="cls-3" x="6.14" y="8.65" width="27.98" height="1"/><rect class="cls-3" x="6.14" y="134.43" width="27.98" height="1"/></g></svg>